<?xml version="1.0" encoding="UTF-8" standalone="no"?> <svg width="451.556mm" height="368.3mm"  viewBox="0 0 1280 1044.65"  xmlns="http://www.w3.org/2000/svg" xmlns:xlink="http://www.w3.org/1999/xlink"  version="1.2" baseProfile="tiny"> <title>Generated with ETE http://etetoolkit.org</title> <desc>Generated with ETE http://etetoolkit.org</desc> <defs> </defs> <g fill="none" stroke="black" stroke-width="1" fill-rule="evenodd" stroke-linecap="square" stroke-linejoin="bevel" >      <g fill="none" stroke="none" transform="matrix(2.31134,0,0,2.31134,0,-173.145)" font-family="DejaVu LGC Sans" font-size="12pt" font-weight="400" font-style="normal"  > <rect x="0" y="74.9113" width="553.792" height="451.969"/> </g>      <g fill="none" stroke="none" transform="matrix(0,2.31134,-2.31134,0,1277.69,2.31134)" font-family="DejaVu LGC Sans" font-size="12pt" font-weight="400" font-style="normal"  > <rect x="0" y="0" width="399.969" height="551.792"/> </g>                                                                                            <g fill="#0030c1" fill-opacity="1" stroke="#0030c1" stroke-opacity="1" stroke-width="1" stroke-linecap="square" stroke-linejoin="bevel" transform="matrix(0,2.31134,-2.31134,0,942.572,2.31134)" font-family="DejaVu LGC Sans" font-size="12pt" font-weight="400" font-style="normal"  > <circle cx="1.5" cy="1.5" r="1.5"/> </g>                  <g fill="none" stroke="#000000" stroke-opacity="1" stroke-width="1" stroke-linecap="butt" stroke-linejoin="bevel" transform="matrix(0,2.31134,-2.31134,0,1277.69,9.24535)" font-family="DejaVu LGC Sans" font-size="12pt" font-weight="400" font-style="normal"  > <polyline fill="none" vector-effect="non-scaling-stroke" points="79.2712,16.3921 79.2712,276.584 " /> </g>            <g fill="none" stroke="#000000" stroke-opacity="1" stroke-width="1" stroke-linecap="butt" stroke-linejoin="bevel" transform="matrix(0,2.31134,-2.31134,0,1277.69,9.24535)" font-family="DejaVu LGC Sans" font-size="12pt" font-weight="400" font-style="normal"  > <polyline fill="none" vector-effect="non-scaling-stroke" points="0,146.488 76.2712,146.488 " /> </g>      <g fill="#0030c1" fill-opacity="1" stroke="#0030c1" stroke-opacity="1" stroke-width="1" stroke-linecap="square" stroke-linejoin="bevel" transform="matrix(0,2.31134,-2.31134,0,942.572,185.534)" font-family="DejaVu LGC Sans" font-size="12pt" font-weight="400" font-style="normal"  > <circle cx="1.5" cy="1.5" r="1.5"/> </g>                  <g fill="none" stroke="#000000" stroke-opacity="1" stroke-width="1" stroke-linecap="butt" stroke-linejoin="bevel" transform="matrix(0,2.31134,-2.31134,0,1277.69,192.468)" font-family="DejaVu LGC Sans" font-size="12pt" font-weight="400" font-style="normal"  > <polyline fill="none" vector-effect="non-scaling-stroke" points="51.8136,1.5 51.8136,31.2843 " /> </g>            <g fill="none" stroke="#000000" stroke-opacity="1" stroke-width="1" stroke-linecap="butt" stroke-linejoin="bevel" transform="matrix(0,2.31134,-2.31134,0,1277.69,192.468)" font-family="DejaVu LGC Sans" font-size="12pt" font-weight="400" font-style="normal"  > <polyline fill="none" vector-effect="non-scaling-stroke" points="0,16.3921 48.8136,16.3921 " /> </g>      <g fill="#0030c1" fill-opacity="1" stroke="#0030c1" stroke-opacity="1" stroke-width="1" stroke-linecap="square" stroke-linejoin="bevel" transform="matrix(0,2.31134,-2.31134,0,1243.27,305.292)" font-family="DejaVu LGC Sans" font-size="12pt" font-weight="400" font-style="normal"  > <circle cx="1.5" cy="1.5" r="1.5"/> </g>                        <g fill="none" stroke="#000000" stroke-opacity="1" stroke-width="1" stroke-linecap="butt" stroke-linejoin="bevel" transform="matrix(0,2.31134,-2.31134,0,1277.69,312.226)" font-family="DejaVu LGC Sans" font-size="12pt" font-weight="400" font-style="normal"  > <polyline fill="none" vector-effect="non-scaling-stroke" points="0,1.5 54.9153,1.5 " /> </g>      <g fill="#0030c1" fill-opacity="1" stroke="#0030c1" stroke-opacity="1" stroke-width="1" stroke-linecap="square" stroke-linejoin="bevel" transform="matrix(0,2.31134,-2.31134,0,1277.69,439.154)" font-family="DejaVu LGC Sans" font-size="12pt" font-weight="400" font-style="normal"  > <circle cx="1.5" cy="1.5" r="1.5"/> </g>                        <g fill="none" stroke="#000000" stroke-opacity="1" stroke-width="1" stroke-linecap="butt" stroke-linejoin="bevel" transform="matrix(0,2.31134,-2.31134,0,1270.75,312.226)" font-family="DejaVu LGC Sans" font-size="12pt" font-weight="400" font-style="normal"  > <polyline fill="none" vector-effect="non-scaling-stroke" points="0,28.2843 6.10169,28.2843 " /> </g>          <g fill="#f07f4a" fill-opacity="1" stroke="none" transform="matrix(0,2.31134,-2.31134,0,1270.75,326.329)" font-family="DejaVu LGC Sans" font-size="12pt" font-weight="400" font-style="normal"  > <path vector-effect="none" fill-rule="evenodd" d="M28.2843,28.2843 L56.5685,28.2843 C56.5685,12.6633 43.9052,0 28.2843,0 C12.6633,0 0,12.6633 0,28.2843 C0,43.9052 12.6633,56.5685 28.2843,56.5685 C43.9052,56.5685 56.5685,43.9052 56.5685,28.2843 L28.2843,28.2843"/> </g>              <g fill="none" stroke="#000000" stroke-opacity="1" stroke-width="1" stroke-linecap="butt" stroke-linejoin="bevel" transform="matrix(0,2.31134,-2.31134,0,1140.01,192.468)" font-family="DejaVu LGC Sans" font-size="12pt" font-weight="400" font-style="normal"  > <polyline fill="none" vector-effect="non-scaling-stroke" points="24.3559,69.1375 24.3559,364.894 " /> </g>            <g fill="none" stroke="#000000" stroke-opacity="1" stroke-width="1" stroke-linecap="butt" stroke-linejoin="bevel" transform="matrix(0,2.31134,-2.31134,0,1140.01,192.468)" font-family="DejaVu LGC Sans" font-size="12pt" font-weight="400" font-style="normal"  > <polyline fill="none" vector-effect="non-scaling-stroke" points="0,217.016 21.3559,217.016 " /> </g>      <g fill="#0030c1" fill-opacity="1" stroke="#0030c1" stroke-opacity="1" stroke-width="1" stroke-linecap="square" stroke-linejoin="bevel" transform="matrix(0,2.31134,-2.31134,0,641.876,241.828)" font-family="DejaVu LGC Sans" font-size="12pt" font-weight="400" font-style="normal"  > <circle cx="1.5" cy="1.5" r="1.5"/> </g>                  <g fill="none" stroke="#000000" stroke-opacity="1" stroke-width="1" stroke-linecap="butt" stroke-linejoin="bevel" transform="matrix(0,2.31134,-2.31134,0,1140.01,248.763)" font-family="DejaVu LGC Sans" font-size="12pt" font-weight="400" font-style="normal"  > <polyline fill="none" vector-effect="non-scaling-stroke" points="71.2512,14.1421 71.2512,124.133 " /> </g>            <g fill="none" stroke="#000000" stroke-opacity="1" stroke-width="1" stroke-linecap="butt" stroke-linejoin="bevel" transform="matrix(0,2.31134,-2.31134,0,1140.01,248.763)" font-family="DejaVu LGC Sans" font-size="12pt" font-weight="400" font-style="normal"  > <polyline fill="none" vector-effect="non-scaling-stroke" points="0,69.1375 36.6102,69.1375 " /> </g>          <g fill="#f8766d" fill-opacity="1" stroke="none" transform="matrix(0,2.31134,-2.31134,0,1020.24,333.381)" font-family="DejaVu LGC Sans" font-size="12pt" font-weight="400" font-style="normal"  > <path vector-effect="none" fill-rule="evenodd" d="M17.3205,17.3205 L34.641,17.3205 C34.641,7.75466 26.8864,0 17.3205,0 C7.75466,0 0,7.75466 0,17.3205 C0,26.8864 7.75466,34.641 17.3205,34.641 C26.8864,34.641 34.641,26.8864 34.641,17.3205 L17.3205,17.3205"/> </g>                    <g fill="none" stroke="#000000" stroke-opacity="1" stroke-width="1" stroke-linecap="butt" stroke-linejoin="bevel" transform="matrix(0,2.31134,-2.31134,0,1140.01,413.448)" font-family="DejaVu LGC Sans" font-size="12pt" font-weight="400" font-style="normal"  > <polyline fill="none" vector-effect="non-scaling-stroke" points="0,14.1421 3.05085,14.1421 " /> </g>          <g fill="#f8766d" fill-opacity="1" stroke="none" transform="matrix(0,2.31134,-2.31134,0,1140.01,420.5)" font-family="DejaVu LGC Sans" font-size="12pt" font-weight="400" font-style="normal"  > <path vector-effect="none" fill-rule="evenodd" d="M14.1421,14.1421 L28.2843,14.1421 C28.2843,6.33165 21.9526,0 14.1421,0 C6.33165,0 0,6.33165 0,14.1421 C0,21.9526 6.33165,28.2843 14.1421,28.2843 C21.9526,28.2843 28.2843,21.9526 28.2843,14.1421 L14.1421,14.1421"/> </g>              <g fill="none" stroke="#000000" stroke-opacity="1" stroke-width="1" stroke-linecap="butt" stroke-linejoin="bevel" transform="matrix(0,2.31134,-2.31134,0,1074.63,413.448)" font-family="DejaVu LGC Sans" font-size="12pt" font-weight="400" font-style="normal"  > <polyline fill="none" vector-effect="non-scaling-stroke" points="9.10169,24.4949 9.10169,167.202 " /> </g>            <g fill="none" stroke="#000000" stroke-opacity="1" stroke-width="1" stroke-linecap="butt" stroke-linejoin="bevel" transform="matrix(0,2.31134,-2.31134,0,1074.63,413.448)" font-family="DejaVu LGC Sans" font-size="12pt" font-weight="400" font-style="normal"  > <polyline fill="none" vector-effect="non-scaling-stroke" points="0,95.8487 6.10169,95.8487 " /> </g>      <g fill="#0030c1" fill-opacity="1" stroke="#0030c1" stroke-opacity="1" stroke-width="1" stroke-linecap="square" stroke-linejoin="bevel" transform="matrix(0,2.31134,-2.31134,0,856.56,427.551)" font-family="DejaVu LGC Sans" font-size="12pt" font-weight="400" font-style="normal"  > <circle cx="1.5" cy="1.5" r="1.5"/> </g>                        <g fill="none" stroke="#000000" stroke-opacity="1" stroke-width="1" stroke-linecap="butt" stroke-linejoin="bevel" transform="matrix(0,2.31134,-2.31134,0,1074.63,434.485)" font-family="DejaVu LGC Sans" font-size="12pt" font-weight="400" font-style="normal"  > <polyline fill="none" vector-effect="non-scaling-stroke" points="0,24.4949 6.10169,24.4949 " /> </g>          <g fill="#f8766d" fill-opacity="1" stroke="none" transform="matrix(0,2.31134,-2.31134,0,1074.63,448.588)" font-family="DejaVu LGC Sans" font-size="12pt" font-weight="400" font-style="normal"  > <path vector-effect="none" fill-rule="evenodd" d="M24.4949,24.4949 L48.9898,24.4949 C48.9898,10.9667 38.0231,0 24.4949,0 C10.9667,0 0,10.9667 0,24.4949 C0,38.0231 10.9667,48.9898 24.4949,48.9898 C38.0231,48.9898 48.9898,38.0231 48.9898,24.4949 L24.4949,24.4949"/> </g>                    <g fill="none" stroke="#000000" stroke-opacity="1" stroke-width="1" stroke-linecap="butt" stroke-linejoin="bevel" transform="matrix(0,2.31134,-2.31134,0,961.399,434.485)" font-family="DejaVu LGC Sans" font-size="12pt" font-weight="400" font-style="normal"  > <polyline fill="none" vector-effect="non-scaling-stroke" points="0,28.2843 3.05085,28.2843 " /> </g>          <g fill="#f8766d" fill-opacity="1" stroke="none" transform="matrix(0,2.31134,-2.31134,0,961.399,441.537)" font-family="DejaVu LGC Sans" font-size="12pt" font-weight="400" font-style="normal"  > <path vector-effect="none" fill-rule="evenodd" d="M28.2843,28.2843 L56.5685,28.2843 C56.5685,12.6633 43.9052,0 28.2843,0 C12.6633,0 0,12.6633 0,28.2843 C0,43.9052 12.6633,56.5685 28.2843,56.5685 C43.9052,56.5685 56.5685,43.9052 56.5685,28.2843 L28.2843,28.2843"/> </g>                    <g fill="none" stroke="#000000" stroke-opacity="1" stroke-width="1" stroke-linecap="butt" stroke-linejoin="bevel" transform="matrix(0,2.31134,-2.31134,0,830.65,434.485)" font-family="DejaVu LGC Sans" font-size="12pt" font-weight="400" font-style="normal"  > <polyline fill="none" vector-effect="non-scaling-stroke" points="0,61.6441 15.2542,61.6441 " /> </g>          <g fill="#e58702" fill-opacity="1" stroke="none" transform="matrix(0,2.31134,-2.31134,0,830.65,469.743)" font-family="DejaVu LGC Sans" font-size="12pt" font-weight="400" font-style="normal"  > <path vector-effect="none" fill-rule="evenodd" d="M61.6441,61.6441 L123.288,61.6441 C123.288,27.599 95.6893,0 61.6441,0 C27.599,0 0,27.599 0,61.6441 C0,95.6893 27.599,123.288 61.6441,123.288 C95.6893,123.288 123.288,95.6893 123.288,61.6441 L61.6441,61.6441"/> </g>              <g fill="none" stroke="#000000" stroke-opacity="1" stroke-width="1" stroke-linecap="butt" stroke-linejoin="bevel" transform="matrix(0,2.31134,-2.31134,0,545.69,248.763)" font-family="DejaVu LGC Sans" font-size="12pt" font-weight="400" font-style="normal"  > <polyline fill="none" vector-effect="non-scaling-stroke" points="33.5085,48.9898 33.5085,166.536 " /> </g>            <g fill="none" stroke="#000000" stroke-opacity="1" stroke-width="1" stroke-linecap="butt" stroke-linejoin="bevel" transform="matrix(0,2.31134,-2.31134,0,545.69,248.763)" font-family="DejaVu LGC Sans" font-size="12pt" font-weight="400" font-style="normal"  > <polyline fill="none" vector-effect="non-scaling-stroke" points="0,107.763 30.5085,107.763 " /> </g>      <g fill="#0030c1" fill-opacity="1" stroke="#0030c1" stroke-opacity="1" stroke-width="1" stroke-linecap="square" stroke-linejoin="bevel" transform="matrix(0,2.31134,-2.31134,0,300.08,319.278)" font-family="DejaVu LGC Sans" font-size="12pt" font-weight="400" font-style="normal"  > <circle cx="1.5" cy="1.5" r="1.5"/> </g>                              <g fill="none" stroke="#000000" stroke-opacity="1" stroke-width="1" stroke-linecap="butt" stroke-linejoin="bevel" transform="matrix(0,2.31134,-2.31134,0,545.69,326.212)" font-family="DejaVu LGC Sans" font-size="12pt" font-weight="400" font-style="normal"  > <polyline fill="none" vector-effect="non-scaling-stroke" points="0,48.9898 3.05085,48.9898 " /> </g>          <g fill="#f07f4a" fill-opacity="1" stroke="none" transform="matrix(0,2.31134,-2.31134,0,545.69,333.263)" font-family="DejaVu LGC Sans" font-size="12pt" font-weight="400" font-style="normal"  > <path vector-effect="none" fill-rule="evenodd" d="M48.9898,48.9898 L97.9796,48.9898 C97.9796,21.9335 76.0461,0 48.9898,0 C21.9335,0 0,21.9335 0,48.9898 C0,76.0461 21.9335,97.9796 48.9898,97.9796 C76.0461,97.9796 97.9796,76.0461 97.9796,48.9898 L48.9898,48.9898"/> </g>                    <g fill="none" stroke="#000000" stroke-opacity="1" stroke-width="1" stroke-linecap="butt" stroke-linejoin="bevel" transform="matrix(0,2.31134,-2.31134,0,535.824,559.727)" font-family="DejaVu LGC Sans" font-size="12pt" font-weight="400" font-style="normal"  > <polyline fill="none" vector-effect="non-scaling-stroke" points="0,44.7214 6.10169,44.7214 " /> </g>          <g fill="#f07f4a" fill-opacity="1" stroke="none" transform="matrix(0,2.31134,-2.31134,0,535.824,573.83)" font-family="DejaVu LGC Sans" font-size="12pt" font-weight="400" font-style="normal"  > <path vector-effect="none" fill-rule="evenodd" d="M44.7214,44.7214 L89.4427,44.7214 C89.4427,20.0224 69.4203,0 44.7214,0 C20.0224,0 0,20.0224 0,44.7214 C0,69.4203 20.0224,89.4427 44.7214,89.4427 C69.4203,89.4427 89.4427,69.4203 89.4427,44.7214 L44.7214,44.7214"/> </g>                          <g fill="none" stroke="#000000" stroke-opacity="1" stroke-width="1" stroke-linecap="butt" stroke-linejoin="bevel" transform="matrix(0,2.31134,-2.31134,0,319.226,326.212)" font-family="DejaVu LGC Sans" font-size="12pt" font-weight="400" font-style="normal"  > <polyline fill="none" vector-effect="non-scaling-stroke" points="0,68.5565 3.05085,68.5565 " /> </g>          <g fill="#f8766d" fill-opacity="1" stroke="none" transform="matrix(0,2.31134,-2.31134,0,319.226,333.263)" font-family="DejaVu LGC Sans" font-size="12pt" font-weight="400" font-style="normal"  > <path vector-effect="none" fill-rule="evenodd" d="M68.5565,68.5565 L137.113,68.5565 C137.113,65.4621 136.908,62.4156 136.511,59.4297 L68.5565,68.5565"/> </g>  <g fill="#f07f4a" fill-opacity="1" stroke="none" transform="matrix(0,2.31134,-2.31134,0,319.226,333.263)" font-family="DejaVu LGC Sans" font-size="12pt" font-weight="400" font-style="normal"  > <path vector-effect="none" fill-rule="evenodd" d="M68.5565,68.5565 L136.511,59.4297 C132.048,25.8818 103.325,0 68.5565,0 C30.6938,0 0,30.6938 0,68.5565 C0,106.419 30.6938,137.113 68.5565,137.113 C106.394,137.113 137.073,106.46 137.113,68.6313 L68.5565,68.5565"/> </g>                    <g fill="none" stroke="#000000" stroke-opacity="1" stroke-width="1" stroke-linecap="butt" stroke-linejoin="bevel" transform="matrix(0,2.31134,-2.31134,0,295.542,650.178)" font-family="DejaVu LGC Sans" font-size="12pt" font-weight="400" font-style="normal"  > <polyline fill="none" vector-effect="non-scaling-stroke" points="0,58.3095 3.05085,58.3095 " /> </g>          <g fill="#f07f4a" fill-opacity="1" stroke="none" transform="matrix(0,2.31134,-2.31134,0,295.542,657.229)" font-family="DejaVu LGC Sans" font-size="12pt" font-weight="400" font-style="normal"  > <path vector-effect="none" fill-rule="evenodd" d="M58.3095,58.3095 L116.619,58.3095 C116.619,26.1061 90.513,0 58.3095,0 C26.1061,0 0,26.1061 0,58.3095 C0,90.513 26.1061,116.619 58.3095,116.619 C90.513,116.619 116.619,90.513 116.619,58.3095 L58.3095,58.3095"/> </g>                                                                                  <g fill="none" stroke="#000000" stroke-opacity="1" stroke-width="1" stroke-linecap="square" stroke-linejoin="bevel" transform="matrix(2.31134,0,0,2.31134,2.31134,929.087)" font-family="DejaVu LGC Sans" font-size="12pt" font-weight="400" font-style="normal"  > <polyline fill="none" vector-effect="none" points="0,5 50,5 " /> </g>      <g fill="none" stroke="#000000" stroke-opacity="1" stroke-width="1" stroke-linecap="square" stroke-linejoin="bevel" transform="matrix(2.31134,0,0,2.31134,2.31134,929.087)" font-family="DejaVu LGC Sans" font-size="12pt" font-weight="400" font-style="normal"  > <polyline fill="none" vector-effect="none" points="0,0 0,10 " /> </g>      <g fill="none" stroke="#000000" stroke-opacity="1" stroke-width="1" stroke-linecap="square" stroke-linejoin="bevel" transform="matrix(2.31134,0,0,2.31134,2.31134,929.087)" font-family="DejaVu LGC Sans" font-size="12pt" font-weight="400" font-style="normal"  > <polyline fill="none" vector-effect="none" points="50,0 50,10 " /> </g>      <g fill="none" stroke="#000000" stroke-opacity="1" stroke-width="1" stroke-linecap="square" stroke-linejoin="bevel" transform="matrix(2.31134,0,0,2.31134,2.31134,952.2)" font-family="DejaVu LGC Sans" font-size="12pt" font-weight="400" font-style="normal"  > <text fill="#000000" fill-opacity="1" stroke="none" xml:space="preserve" x="0" y="16" font-family="DejaVu LGC Sans" font-size="12pt" font-weight="400" font-style="normal"   >16.3889</text> </g>     </g> </svg> 